<svg width="366" height="636" viewBox="0 0 366 636" fill="none" xmlns="http://www.w3.org/2000/svg">
<g opacity="0.5">
<path d="M0 58.0725C5.35323 62.4967 13.3831 71.677 26.7662 70.0179C50.8557 67.0316 86.5446 19.5818 72.2687 14.2725C56.209 8.29976 65.5771 74 95.0199 74C124.463 74 147.214 1 173.98 1C200.746 1 180.672 48.7818 207.438 50.1091C234.204 51.4364 228.851 15.6 269 22.2364" stroke="#6C757D" stroke-opacity="0.65" stroke-width="2"/>
<circle cx="333.5" cy="112.5" r="20" stroke="#6C757D" stroke-opacity="0.65" stroke-width="3"/>
<rect width="14.1245" height="14.1245" transform="matrix(-0.717792 0.696258 -0.717792 -0.696258 365.243 539.834)" fill="#8898AE"/>
<rect width="14.1245" height="14.1245" transform="matrix(-0.717792 0.696258 -0.717792 -0.696258 298.332 539.834)" fill="#8898AE"/>
<rect width="14.1245" height="14.1245" transform="matrix(-0.717792 0.696258 -0.717792 -0.696258 233.811 539.834)" fill="#8898AE"/>
<rect width="14.1245" height="14.1245" transform="matrix(-0.717792 0.696258 -0.717792 -0.696258 166.901 539.834)" fill="#8898AE"/>
<rect width="14.1245" height="14.1245" transform="matrix(-0.717792 0.696258 -0.717792 -0.696258 365.243 625.996)" fill="#8898AE"/>
<rect width="14.1245" height="14.1245" transform="matrix(-0.717792 0.696258 -0.717792 -0.696258 298.332 625.996)" fill="#8898AE"/>
<rect width="14.1245" height="14.1245" transform="matrix(-0.717792 0.696258 -0.717792 -0.696258 233.811 625.996)" fill="#8898AE"/>
<rect width="14.1245" height="14.1245" transform="matrix(-0.717792 0.696258 -0.717792 -0.696258 166.901 625.996)" fill="#8898AE"/>
<rect width="14.1245" height="14.1245" transform="matrix(-0.717792 0.696258 -0.717792 -0.696258 324.618 581.955)" fill="#8898AE"/>
<rect width="14.1245" height="14.1245" transform="matrix(-0.717792 0.696258 -0.717792 -0.696258 257.708 581.955)" fill="#8898AE"/>
<rect width="14.1245" height="14.1245" transform="matrix(-0.717792 0.696258 -0.717792 -0.696258 193.187 581.955)" fill="#8898AE"/>
<rect width="14.1245" height="14.1245" transform="matrix(-0.717792 0.696258 -0.717792 -0.696258 126.277 581.955)" fill="#8898AE"/>
</g>
</svg>
