<svg width="49" height="35" viewBox="0 0 49 35" fill="none" xmlns="http://www.w3.org/2000/svg">
<path d="M36.2596 16.8623H36.7596V16.3623V6.73742V6.23742H36.2596C34.362 6.23742 32.8396 4.72937 32.8396 2.88747V2.38747H32.3396H6.85992H6.35992V2.88747C6.35992 4.72937 4.83752 6.23742 2.93997 6.23742H2.43997V6.73742V16.3623V16.8623H2.93997C4.83752 16.8623 6.35992 18.3704 6.35992 20.2123V20.7123H6.85992H32.3396H32.8396V20.2123C32.8396 18.3704 34.362 16.8623 36.2596 16.8623ZM14.2198 11.5499C14.2198 8.0387 16.6902 5.31244 19.5998 5.31244C22.5093 5.31244 24.9797 8.0387 24.9797 11.5499C24.9797 15.0615 22.5082 17.7873 19.5998 17.7873C16.6902 17.7873 14.2198 15.0605 14.2198 11.5499ZM21.5597 15.8998C22.0981 15.8998 22.5497 15.4691 22.5497 14.9186V13.9561C22.5497 13.4056 22.0981 12.9748 21.5597 12.9748H21.0798V8.18115C21.0798 7.63067 20.6281 7.19991 20.0898 7.19991H19.258C18.8711 7.19989 18.4922 7.31232 18.1689 7.52403C18.1689 7.52403 18.1689 7.52404 18.1688 7.52405L17.2303 8.13859C17.2302 8.13864 17.2301 8.1387 17.23 8.13875C17.23 8.13877 17.23 8.1388 17.2299 8.13882C17.1219 8.20948 17.0285 8.30074 16.9555 8.40776C16.8823 8.51492 16.8311 8.63566 16.8051 8.76315C16.7791 8.89064 16.779 9.022 16.8047 9.14956C16.8304 9.27708 16.8813 9.39791 16.9542 9.50521C16.9543 9.50523 16.9543 9.50525 16.9543 9.50527L17.4978 10.3054C17.4979 10.3055 17.498 10.3057 17.4981 10.3058C17.4981 10.3058 17.4981 10.3058 17.4981 10.3059C17.5709 10.4131 17.6639 10.5045 17.7717 10.5755C17.8776 10.6453 17.9959 10.6939 18.1198 10.7192V12.9748H17.6398C17.1015 12.9748 16.6498 13.4056 16.6498 13.9561V14.9186C16.6498 15.4691 17.1015 15.8998 17.6398 15.8998H21.5597ZM1.95998 0.5H37.2396C38.0542 0.5 38.6995 1.14663 38.6995 1.92498V21.1748C38.6995 21.9531 38.0542 22.5997 37.2396 22.5997H1.95998C1.14531 22.5997 0.5 21.9531 0.5 21.1748V1.92498C0.5 1.14663 1.14531 0.5 1.95998 0.5Z" stroke="#008631"/>
<circle cx="36.3967" cy="22.4006" r="12.5999" fill="white"/>
<path d="M39.8999 17.5C42.6061 17.5 44.7999 16.7165 44.7999 15.75C44.7999 14.7835 42.6061 14 39.8999 14C37.1938 14 35 14.7835 35 15.75C35 16.7165 37.1938 17.5 39.8999 17.5Z" stroke="#008631" stroke-miterlimit="10" stroke-linecap="round" stroke-linejoin="round"/>
<path d="M35 16.0996C35 16.4188 35 17.8804 35 18.1996C35 19.1659 37.1931 19.9496 39.8999 19.9496C42.6068 19.9496 44.7999 19.1659 44.7999 18.1996C44.7999 17.8804 44.7999 16.4188 44.7999 16.0996" stroke="#008631" stroke-miterlimit="10" stroke-linecap="round" stroke-linejoin="round"/>
<path d="M37.6406 22.2024C38.3161 22.3277 39.084 22.3988 39.8981 22.3988C42.605 22.3988 44.798 21.6151 44.798 20.6488C44.798 20.3296 44.798 18.868 44.798 18.5488" stroke="#008631" stroke-miterlimit="10" stroke-linecap="round" stroke-linejoin="round"/>
<path d="M35 18.5488C35 18.868 35 20.0433 35 20.0433" stroke="#008631" stroke-miterlimit="10" stroke-linecap="round" stroke-linejoin="round"/>
<path d="M37.8125 24.683C38.4467 24.7901 39.1554 24.85 39.9037 24.85C42.6106 24.85 44.8037 24.0667 44.8037 23.1C44.8037 22.7808 44.8037 21.3192 44.8037 21" stroke="#008631" stroke-miterlimit="10" stroke-linecap="round" stroke-linejoin="round"/>
<path d="M37.7812 27.1277C38.4221 27.2376 39.1406 27.2992 39.8994 27.2992C42.6063 27.2992 44.7994 26.5159 44.7994 25.5492C44.7994 25.23 44.7994 23.7684 44.7994 23.4492" stroke="#008631" stroke-miterlimit="10" stroke-linecap="round" stroke-linejoin="round"/>
<path d="M32.8999 23.4511C35.6061 23.4511 37.7999 22.6676 37.7999 21.7011C37.7999 20.7347 35.6061 19.9512 32.8999 19.9512C30.1938 19.9512 28 20.7347 28 21.7011C28 22.6676 30.1938 23.4511 32.8999 23.4511Z" stroke="#008631" stroke-miterlimit="10" stroke-linecap="round" stroke-linejoin="round"/>
<path d="M28 22.0508C28 22.37 28 23.8316 28 24.1508C28 25.1174 30.1931 25.9007 32.8999 25.9007C35.6068 25.9007 37.7999 25.1174 37.7999 24.1508C37.7999 23.8316 37.7999 22.37 37.7999 22.0508" stroke="#008631" stroke-miterlimit="10" stroke-linecap="round" stroke-linejoin="round"/>
<path d="M28 24.5C28 24.8192 28 26.2808 28 26.6C28 27.5667 30.1931 28.35 32.8999 28.35C35.6068 28.35 37.7999 27.5667 37.7999 26.6C37.7999 26.2808 37.7999 24.8192 37.7999 24.5" stroke="#008631" stroke-miterlimit="10" stroke-linecap="round" stroke-linejoin="round"/>
<path d="M28 26.9492C28 27.2684 28 28.73 28 29.0492C28 30.0159 30.1931 30.7992 32.8999 30.7992C35.6068 30.7992 37.7999 30.0159 37.7999 29.0492C37.7999 28.73 37.7999 27.2684 37.7999 26.9492" stroke="#008631" stroke-miterlimit="10" stroke-linecap="round" stroke-linejoin="round"/>
</svg>