<svg width="32" height="30" viewBox="0 0 32 30" fill="none" xmlns="http://www.w3.org/2000/svg">
<path d="M27.943 0H4.05424C2.9537 0.0038457 1.98122 0.495134 1.25386 1.19601C0.524501 1.89401 0.00724621 2.83044 0.00724621 3.88704V19.6861C0.00724621 20.0486 -0.031773 22.456 0.0712777 24.7317C0.124304 25.87 0.200341 26.9824 0.356418 27.8727C0.76662 29.9013 1.79112 30.5147 3.28986 29.559C3.61802 29.3225 3.92918 29.035 4.25934 28.7043C4.92167 28.0428 5.64302 27.2006 6.33836 26.3748C7.03571 25.5489 7.71004 24.7365 8.2353 24.15C8.49743 23.8568 8.72754 23.6136 8.87461 23.4847L27.935 23.5857C30.1681 23.5963 32 21.8292 32 19.6871V3.88704C31.999 1.74787 30.1701 0 27.943 0ZM19.1937 16.3952H6.39439C4.94068 16.4259 4.94068 14.3127 6.39439 14.3454H19.1937C20.6494 14.3137 20.6494 16.4259 19.1937 16.3952ZM25.5958 12.2957H6.39439C4.96969 12.2957 4.96969 10.244 6.39439 10.244H25.5948C27.0205 10.244 27.0205 12.2957 25.5958 12.2957ZM25.5958 8.19422H6.39439C4.94068 8.22403 4.94068 6.11178 6.39439 6.14351H25.5948C27.0496 6.11274 27.0496 8.22403 25.5958 8.19422Z" fill="#007AFF"/>
</svg>
