<svg width="101" height="100" viewBox="0 0 101 100" fill="none" xmlns="http://www.w3.org/2000/svg">
<path d="M58.7219 9.5415H19.4424V90.4575H81.6855V32.5051L58.7219 9.5415Z" fill="#231F20"/>
<path d="M77.017 85.789H24.1104V14.2095H56.788L77.017 34.4385V85.789Z" fill="white"/>
<path d="M56.7881 34.4385V14.2095L77.0171 34.4385H56.7881Z" fill="#6D6E71"/>
<path d="M56.7881 34.439L77.0171 54.668V34.439H56.7881Z" fill="#E6E7E8"/>
<path d="M10 31H24V81H10V31Z" fill="#231F20"/>
<path d="M24.1104 34.439H52.1197V81.1213H24.1104V34.439Z" fill="url(#paint0_linear_7775_35868)"/>
<path d="M15 36H57V76H15V36Z" fill="#2FA860"/>
<path d="M57.1201 48.4424H61.7883V51.5545H57.1201V48.4424Z" fill="#E6E7E8"/>
<path d="M57.1201 56.2231H61.7883V59.3353H57.1201V56.2231Z" fill="#E6E7E8"/>
<path d="M57.1201 64.0039H61.7883V67.1161H57.1201V64.0039Z" fill="#E6E7E8"/>
<path d="M57.1201 71.7832H61.7883V74.8954H57.1201V71.7832Z" fill="#E6E7E8"/>
<path d="M57.1201 40.6631H61.7883V43.7752H57.1201V40.6631Z" fill="#E6E7E8"/>
<path d="M64.9014 48.4424H69.5696V51.5545H64.9014V48.4424Z" fill="#E6E7E8"/>
<path d="M64.9014 56.2231H69.5696V59.3353H64.9014V56.2231Z" fill="#E6E7E8"/>
<path d="M64.9014 64.0039H69.5696V67.1161H64.9014V64.0039Z" fill="#E6E7E8"/>
<path d="M64.9014 71.7832H69.5696V74.8954H64.9014V71.7832Z" fill="#E6E7E8"/>
<path d="M64.9014 40.6631H69.5696V43.7752H64.9014V40.6631Z" fill="#E6E7E8"/>
<path d="M48.7851 45H42.5608L37.8925 51.5355L33.2243 45H27L34.7804 55.8925L27 66.7851H33.2243L37.8925 60.2496L42.5608 66.7851H48.7851L41.0047 55.8925L48.7851 45Z" fill="white"/>
<path d="M63.0117 40.6631L64.5678 42.2192V40.6631H63.0117Z" fill="#D4D6D8"/>
<defs>
<linearGradient id="paint0_linear_7775_35868" x1="51.5199" y1="57.7801" x2="24.7614" y2="57.7801" gradientUnits="userSpaceOnUse">
<stop stop-color="white"/>
<stop offset="1" stop-color="#E6E7E8"/>
</linearGradient>
</defs>
</svg>
