<svg width="74" height="74" viewBox="0 0 74 74" fill="none" xmlns="http://www.w3.org/2000/svg">
<rect x="8.75098" y="8.75" width="56.5" height="56.5" fill="white" stroke="#231F20" stroke-width="3.5"/>
<path fill-rule="evenodd" clip-rule="evenodd" d="M52 22.7744V26.5487L45.9502 26.5485C49.1287 29.3491 51.0768 33.4477 51.0731 37.9136C51.0673 44.8295 46.3823 50.8572 39.7023 52.5431C33.0223 54.229 26.0555 51.142 22.7935 45.0508C19.5317 38.9597 20.8088 31.4219 25.8933 26.7564C26.6116 27.9039 27.6244 28.8361 28.8254 29.4551C27.55 30.4896 26.5216 31.7979 25.8158 33.2838C25.11 34.7697 24.7447 36.3955 24.7467 38.0418C24.8392 44.229 29.8612 49.1958 36.0239 49.1951C41.6689 49.2885 46.4826 45.1086 47.2047 39.4864C47.7443 35.286 45.8713 31.2825 42.6026 28.9641L42.6023 35.9848H38.8432V22.7744H52ZM32.2649 19C34.341 19 36.0239 20.6899 36.0239 22.7744C36.0239 24.8589 34.341 26.5487 32.2649 26.5487C30.1888 26.5487 28.5058 24.8589 28.5058 22.7744C28.5058 20.6899 30.1888 19 32.2649 19Z" fill="#FF3100"/>
</svg>
