<svg width="74" height="74" viewBox="0 0 74 74" fill="none" xmlns="http://www.w3.org/2000/svg">
<rect x="8.75098" y="8.75" width="56.5" height="56.5" fill="white" stroke="#231F20" stroke-width="3.5"/>
<path d="M52.3356 52.3347V42.7513H42.7523M21.6689 21.668V31.2513H31.2523M52.2168 35.0847C51.8156 31.898 50.4239 28.9178 48.2383 26.5644C46.0526 24.211 43.1831 22.6033 40.0348 21.968C36.8864 21.3327 33.6181 21.702 30.6909 23.0238C27.7636 24.3455 25.3253 26.5529 23.7198 29.3347M21.7878 38.918C22.189 42.1047 23.5806 45.0849 25.7663 47.4383C27.952 49.7917 30.8214 51.3994 33.9698 52.0347C37.1181 52.6699 40.3865 52.3007 43.3137 50.9789C46.2409 49.6572 48.6793 47.4498 50.2848 44.668" stroke="#FFAE00" stroke-width="4" stroke-linecap="round" stroke-linejoin="round"/>
</svg>
