<svg width="101" height="100" viewBox="0 0 101 100" fill="none" xmlns="http://www.w3.org/2000/svg">
<path d="M58.8107 9.5415H19.5312V90.4575H81.7743V32.5051L58.8107 9.5415Z" fill="#231F20"/>
<path d="M77.1058 85.789H24.1992V14.2095H56.8768L77.1058 34.4385V85.789Z" fill="white"/>
<path d="M56.8779 34.4385V14.2095L77.1069 34.4385H56.8779Z" fill="#6D6E71"/>
<path d="M56.8779 34.439L77.1069 54.668V34.439H56.8779Z" fill="#E6E7E8"/>
<path d="M10 31H24V81H10V31Z" fill="#231F20"/>
<path d="M24.1992 34.439H52.2086V81.1213H24.1992V34.439Z" fill="url(#paint0_linear_7775_35890)"/>
<path d="M15 36H57V76H15V36Z" fill="#05C151"/>
<path d="M57.21 48.4424H61.8782V51.5545H57.21V48.4424Z" fill="#E6E7E8"/>
<path d="M57.21 56.2231H61.8782V59.3353H57.21V56.2231Z" fill="#E6E7E8"/>
<path d="M57.21 64.0039H61.8782V67.1161H57.21V64.0039Z" fill="#E6E7E8"/>
<path d="M57.21 71.7832H61.8782V74.8954H57.21V71.7832Z" fill="#E6E7E8"/>
<path d="M57.21 40.6631H61.8782V43.7752H57.21V40.6631Z" fill="#E6E7E8"/>
<path d="M64.9902 48.4424H69.6585V51.5545H64.9902V48.4424Z" fill="#E6E7E8"/>
<path d="M64.9902 56.2231H69.6585V59.3353H64.9902V56.2231Z" fill="#E6E7E8"/>
<path d="M64.9902 64.0039H69.6585V67.1161H64.9902V64.0039Z" fill="#E6E7E8"/>
<path d="M64.9902 71.7832H69.6585V74.8954H64.9902V71.7832Z" fill="#E6E7E8"/>
<path d="M64.9902 40.6631H69.6585V43.7752H64.9902V40.6631Z" fill="#E6E7E8"/>
<path d="M63.1035 40.6631L64.6596 42.2192V40.6631H63.1035Z" fill="#D4D6D8"/>
<path d="M26.2632 53.2471V52.1189C26.2632 51.5159 26.2632 50.4072 25.4657 50.4072C24.4543 50.4072 24.4154 51.1075 24.4154 55.056C24.4154 59.1213 24.5126 59.7048 25.4657 59.7048C26.0882 59.7048 26.341 59.0824 26.341 57.3512V56.2814H30.1145V57.1567C30.1145 60.405 28.8113 62.2723 25.4074 62.2723C20.4085 62.2723 20.4085 59.4908 20.4085 55.056C20.4085 50.7573 20.4085 47.8397 25.4074 47.8397C29.5504 47.8397 30.0367 50.0766 30.0367 52.2356V53.2471H26.2632ZM36.5354 52.0995V51.5354C36.5354 50.9519 36.2826 50.4072 35.6213 50.4072C35.0377 50.4072 34.7265 50.8935 34.7265 51.4576C34.7265 54.2196 40.5229 52.7997 40.5229 57.7597C40.5229 60.9885 39.0252 62.2723 35.4267 62.2723C32.4507 62.2723 30.8169 61.2609 30.8169 58.2071V57.8375H34.5903V58.4794C34.5903 59.1602 34.8821 59.7048 35.5629 59.7048C36.2826 59.7048 36.516 59.0824 36.516 58.4794C36.516 57.5846 36.1853 57.3901 35.6796 57.0984C35.1544 56.8066 34.4542 56.5343 33.754 56.1842C31.6533 55.1338 30.953 54.3752 30.953 52.3134C30.953 50.3878 31.5365 49.3374 32.4313 48.6955C33.0926 48.2287 34.0846 47.8397 35.6018 47.8397C39.5309 47.8397 40.1922 49.7848 40.1922 52.0995H36.5354ZM46.1853 58.8489L47.4496 48.112H51.5537L48.6166 62H43.5983L40.6806 48.112H44.882L46.1463 58.8489H46.1853Z" fill="white"/>
<defs>
<linearGradient id="paint0_linear_7775_35890" x1="51.6087" y1="57.7801" x2="24.8502" y2="57.7801" gradientUnits="userSpaceOnUse">
<stop stop-color="white"/>
<stop offset="1" stop-color="#E6E7E8"/>
</linearGradient>
</defs>
</svg>
