<svg width="74" height="74" viewBox="0 0 74 74" fill="none" xmlns="http://www.w3.org/2000/svg">
<rect x="8.75098" y="8.75" width="56.5" height="56.5" fill="white" stroke="#231F20" stroke-width="3.5"/>
<path d="M53.8274 21.8682C53.6922 21.608 53.4884 21.3896 53.238 21.2366C52.9876 21.0836 52.7 21.0018 52.4065 21H37.5604C37.1386 21 36.734 21.1673 36.4357 21.4652C36.1374 21.763 35.9698 22.167 35.9698 22.5882C35.9698 23.0095 36.1374 23.4134 36.4357 23.7113C36.734 24.0091 37.1386 24.1765 37.5604 24.1765H49.2252L45.3016 29.5976C45.179 29.7645 45.0906 29.9538 45.0413 30.1548C44.9921 30.3558 44.9829 30.5645 45.0144 30.769C45.0459 30.9735 45.1175 31.1698 45.225 31.3467C45.3325 31.5236 45.4738 31.6776 45.6409 31.8C45.808 31.9224 45.9976 32.0107 46.1989 32.0599C46.4002 32.109 46.6092 32.1182 46.814 32.0867C47.0188 32.0552 47.2155 31.9838 47.3926 31.8765C47.5698 31.7692 47.7241 31.628 47.8466 31.4612L53.679 23.52C53.8583 23.2872 53.9675 23.0082 53.9938 22.7157C54.0201 22.4232 53.9624 22.1292 53.8274 21.8682ZM29.3951 21.4659H29.2891C29.1674 21.3627 29.0317 21.2771 28.8861 21.2118C28.7364 21.1546 28.5793 21.119 28.4195 21.1059H20.5936C20.3 21.1077 20.0124 21.1895 19.762 21.3425C19.5116 21.4955 19.3078 21.7139 19.1726 21.9741C19.0376 22.2351 18.9799 22.529 19.0062 22.8216C19.0325 23.1141 19.1417 23.3931 19.321 23.6259L30.6676 39V49.0588C30.6731 49.4783 30.8425 49.8791 31.1396 50.1758C31.4367 50.4725 32.2583 50.6471 32.2583 50.6471L40.7417 57C41.1619 56.9945 41.5633 56.8254 41.8604 56.5288C42.1575 56.2321 42.3269 55.8313 42.3324 55.4118V39L42.4596 38.8094L50.222 46.4753C50.3688 46.6238 50.5439 46.7415 50.7369 46.8215C50.9299 46.9015 51.137 46.9422 51.346 46.9412C51.5552 46.9434 51.7626 46.9032 51.9558 46.8231C52.149 46.7431 52.324 46.6247 52.4701 46.4753C52.768 46.1775 52.9353 45.7738 52.9353 45.3529C52.9353 44.9321 52.768 44.5284 52.4701 44.2306L29.3951 21.4659ZM39.4692 37.5388C39.26 37.8042 39.1477 38.1329 39.1511 38.4706V51.7059L33.8489 47.4706V38.4706C33.8523 38.1329 33.74 37.8042 33.5308 37.5388L23.7748 24.1765H27.6348L40.1691 36.5647L39.4692 37.5388Z" fill="#D63305"/>
</svg>
