<svg width="101" height="100" viewBox="0 0 101 100" fill="none" xmlns="http://www.w3.org/2000/svg">
<path d="M58.133 9.33594H18.8535V90.2519H81.0966V32.2995L58.133 9.33594Z" fill="#231F20"/>
<path d="M76.4281 85.5834H23.5215V14.0039H56.1991L76.4281 34.2329V85.5834Z" fill="white"/>
<path d="M56.1992 34.2329V14.0039L76.4282 34.2329H56.1992Z" fill="#6D6E71"/>
<path d="M56.1992 34.2334L76.4282 54.4624V34.2334H56.1992Z" fill="#E6E7E8"/>
<path d="M9 31H23V81H9V31Z" fill="#231F20"/>
<path d="M23.5215 34.2334H51.5309V80.9157H23.5215V34.2334Z" fill="url(#paint0_linear_7775_35835)"/>
<path d="M14 36H56V76H14V36Z" fill="#F91C1C"/>
<path d="M56.5312 48.2373H67.4238V51.3495H56.5312V48.2373Z" fill="#E6E7E8"/>
<path d="M56.5312 56.0181H67.4238V59.1302H56.5312V56.0181Z" fill="#E6E7E8"/>
<path d="M56.5312 63.7988H67.4238V66.911H56.5312V63.7988Z" fill="#E6E7E8"/>
<path d="M56.5312 71.5781H67.4238V74.6903H56.5312V71.5781Z" fill="#E6E7E8"/>
<path d="M56.5312 40.458H67.4238V43.5702H56.5312V40.458Z" fill="#E6E7E8"/>
<path d="M36.9795 40.75C38.0234 40.7502 38.939 41.3004 39.585 42.168C40.2303 43.0346 40.6152 44.2261 40.6152 45.5479C40.6152 45.7792 40.5583 46.1525 40.4561 46.6211C40.3525 47.0959 40.1987 47.686 39.9951 48.3584C39.5951 49.6792 39.0006 51.3245 38.2217 53.0527C39.1559 55.6476 40.2413 58.5208 41.2412 61.0449C42.901 61.5757 44.3171 62.2368 45.3975 62.8428C46.4968 63.4594 47.2636 64.0272 47.583 64.3506C48.4147 65.1928 48.9848 66.2305 49.1787 67.2783L49.2139 67.499C49.3501 68.5263 49.1016 69.4954 48.4951 70.2002L48.3594 70.3477C47.755 70.959 46.951 71.2499 46.0928 71.25C44.9412 71.25 43.6891 70.7288 42.6406 69.7559L42.4336 69.5557C42.2696 69.3897 42.0791 69.0954 41.8701 68.7217C41.6573 68.341 41.4136 67.8552 41.1475 67.2871C40.6279 66.1778 40.0157 64.7442 39.3682 63.1436C39.1813 63.0954 38.9922 63.0474 38.7998 63.0039L38.0879 62.8564C36.1513 62.4956 34.0796 62.311 32.1621 62.2344C30.9833 63.5352 29.8295 64.6437 28.8652 65.4678C28.3726 65.8888 27.928 66.2375 27.5537 66.501C27.2766 66.696 27.0291 66.8507 26.8252 66.9521L26.6367 67.0352C24.2835 67.9106 21.8121 67.2678 21.001 65.4141L20.9277 65.2305C20.5622 64.2237 20.7706 63.0822 21.4609 62.1025L21.5791 61.9414C22.1913 61.1472 23.0894 60.5089 24.124 60.124L24.3057 60.0674C24.5102 60.0122 24.7809 59.9624 25.0996 59.918C25.5304 59.8579 26.0676 59.8044 26.6846 59.7627C27.8894 59.6812 29.4081 59.642 31.0557 59.6738C31.9877 58.5842 32.9271 57.3625 33.7686 56.0498L34.0186 55.6514C34.576 54.7459 35.0777 53.806 35.5244 52.8799C34.9004 51.0877 34.3595 49.4556 33.9727 48.1807C33.7758 47.5317 33.6176 46.9726 33.5088 46.5312C33.4024 46.0997 33.336 45.7547 33.3359 45.5479C33.3359 44.226 33.7225 43.0347 34.3691 42.168C35.0165 41.3004 35.9337 40.75 36.9795 40.75ZM42.5469 64.2461C42.9084 65.1051 43.2334 65.8533 43.5098 66.4443C43.6778 66.8036 43.8256 67.1035 43.9502 67.334C44.0735 67.5622 44.166 67.7069 44.2256 67.7783C44.6929 68.2496 45.2161 68.5344 45.6641 68.6494C46.1303 68.7691 46.4459 68.6926 46.582 68.5557L46.6406 68.4814C46.6916 68.4004 46.7212 68.2977 46.7334 68.1797C46.7415 68.1016 46.7415 68.0226 46.7363 67.9482L46.71 67.7441C46.625 67.2844 46.3654 66.7765 45.9785 66.3291L45.8047 66.1416C45.6633 65.9986 45.2439 65.6808 44.5791 65.2852C44.0421 64.9656 43.3548 64.6021 42.5469 64.2461ZM28.6797 62.2061C27.7939 62.2272 27.0171 62.2677 26.4004 62.3174C26.0211 62.348 25.704 62.3823 25.46 62.416C25.211 62.4504 25.0556 62.4821 24.9863 62.5059C24.4294 62.7136 23.9492 63.0416 23.6328 63.4111L23.5068 63.5723C23.4378 63.67 23.3551 63.8078 23.3047 63.9561C23.2539 64.1053 23.2434 64.242 23.2852 64.3574L23.3193 64.4277C23.4205 64.5927 23.6697 64.7601 24.085 64.8389C24.5406 64.9252 25.1354 64.8881 25.7588 64.6582C25.8178 64.6331 25.9503 64.5536 26.1572 64.4043C26.3585 64.2591 26.6152 64.0599 26.915 63.8105C27.4074 63.401 28.0113 62.8572 28.6797 62.2061ZM36.6758 56.1035C36.5073 56.3989 36.3344 56.6933 36.1553 56.9844L35.877 57.4277C35.3464 58.2558 34.7721 59.0563 34.1826 59.8203C35.5581 59.9228 36.9452 60.0799 38.252 60.3105C37.7207 58.9334 37.1872 57.5054 36.6758 56.1035ZM36.9795 43.2861C36.7879 43.2861 36.5074 43.4577 36.2588 43.8799C36.0206 44.2843 35.8491 44.8644 35.8477 45.5391L35.875 45.7617C35.8917 45.8573 35.9155 45.9745 35.9482 46.1133C36.0126 46.3858 36.1056 46.7276 36.2236 47.1279C36.4136 47.7723 36.6697 48.5631 36.9697 49.458C37.3033 48.5509 37.5665 47.7376 37.7539 47.082C37.8698 46.6766 37.958 46.3328 38.0166 46.0664C38.0752 45.8 38.1007 45.6268 38.1035 45.5459L38.0957 45.2959C38.0595 44.725 37.9025 44.2341 37.6943 43.8789C37.447 43.4571 37.1689 43.2864 36.9795 43.2861Z" fill="white" stroke="white" stroke-width="0.5"/>
<defs>
<linearGradient id="paint0_linear_7775_35835" x1="50.931" y1="57.5746" x2="24.1725" y2="57.5746" gradientUnits="userSpaceOnUse">
<stop stop-color="white"/>
<stop offset="1" stop-color="#E6E7E8"/>
</linearGradient>
</defs>
</svg>
